<svg width="39" height="39" viewBox="0 0 39 39" fill="none" xmlns="http://www.w3.org/2000/svg">
<path d="M34.8214 0H4.17857C3.07035 0 2.00751 0.440241 1.22388 1.22388C0.440241 2.00751 0 3.07035 0 4.17857L0 34.8214C0 35.9297 0.440241 36.9925 1.22388 37.7761C2.00751 38.5598 3.07035 39 4.17857 39H16.1267V25.7409H10.6423V19.5H16.1267V14.7434C16.1267 9.33301 19.3477 6.34446 24.281 6.34446C26.6436 6.34446 29.1142 6.7658 29.1142 6.7658V12.0761H26.392C23.7099 12.0761 22.8733 13.7405 22.8733 15.4477V19.5H28.8609L27.9033 25.7409H22.8733V39H34.8214C35.9297 39 36.9925 38.5598 37.7761 37.7761C38.5598 36.9925 39 35.9297 39 34.8214V4.17857C39 3.07035 38.5598 2.00751 37.7761 1.22388C36.9925 0.440241 35.9297 0 34.8214 0Z" fill="white"/>
</svg>
