<svg width="142" height="45" viewBox="0 0 142 45" fill="none" xmlns="http://www.w3.org/2000/svg">
<path d="M11.2404 41.1295H39.3414V37.3905H11.2629C10.3974 37.368 9.36703 37.0259 9.36703 35.5209C9.36703 34.016 10.3974 33.6738 11.2629 33.6514H39.3414V7.47809C39.3414 5.41601 37.6609 3.73904 35.5946 3.73904H11.2404C8.98111 3.73904 5.62024 5.23279 5.62024 9.34761V35.5209C5.62024 39.6358 8.98111 41.1295 11.2404 41.1295ZM9.36703 14.9562V9.34761C9.36703 7.84265 10.3974 7.50052 11.2404 7.47809H35.5946V29.9124H9.36703V14.9562Z" fill="white"/>
<path d="M14.9872 11.2171H31.8477V14.9562H14.9872V11.2171Z" fill="white"/>
<path d="M18.1835 31.062H26.9022C27.8322 31.062 28.5856 30.3091 28.5856 29.3809V22.3149C30.1108 22.2056 31.0094 20.5018 30.1845 19.1723L29.713 18.4129C29.5279 18.1146 29.2696 17.8684 28.9625 17.6976C28.6553 17.5268 28.3096 17.4372 27.958 17.4372H26.6832V16.9147C26.6833 16.7838 26.6576 16.6541 26.6075 16.5331C26.5574 16.4121 26.4839 16.3021 26.3912 16.2095C26.2984 16.1169 26.1883 16.0434 26.0671 15.9933C25.9459 15.9431 25.816 15.9173 25.6848 15.9173C25.0564 15.9173 24.4536 16.1665 24.0092 16.6099C23.5649 17.0534 23.3152 17.6549 23.3152 18.2821V21.4581C22.1271 21.5912 21.2231 22.1634 20.5597 22.9596C19.8139 23.8531 19.3781 25.0139 19.1179 26.1227C18.8944 27.1229 18.7673 28.1423 18.7385 29.1667C18.7277 29.4826 18.7277 29.7595 18.7299 29.9802H18.1846C17.8377 29.9803 17.4983 29.8791 17.2083 29.6893C16.9182 29.4994 16.69 29.2291 16.5518 28.9116C16.4136 28.594 16.3714 28.2431 16.4304 27.9019C16.4894 27.5608 16.647 27.2443 16.8838 26.9913L17.7478 26.0664C18.3563 25.4152 18.6877 24.5537 18.6724 23.6634C18.657 22.7732 18.296 21.9236 17.6654 21.2937L16.8177 20.4467C16.7677 20.395 16.7079 20.3538 16.6418 20.3254C16.5756 20.2971 16.5045 20.2822 16.4326 20.2816C16.3606 20.2809 16.2892 20.2946 16.2226 20.3218C16.156 20.349 16.0955 20.3892 16.0446 20.44C15.9937 20.4907 15.9535 20.5511 15.9262 20.6176C15.899 20.6841 15.8852 20.7553 15.8859 20.8271C15.8865 20.8989 15.9014 20.9699 15.9298 21.0359C15.9583 21.1019 15.9995 21.1616 16.0513 21.2115L16.9001 22.0585C17.3323 22.49 17.5798 23.0721 17.5903 23.6822C17.6009 24.2923 17.3736 24.8826 16.9565 25.3286L16.0914 26.2535C15.7111 26.6607 15.4582 27.1698 15.3637 27.7183C15.2692 28.2669 15.3372 28.831 15.5593 29.3416C15.7814 29.8521 16.1481 30.2869 16.6142 30.5925C17.0804 30.8981 17.6258 31.0612 18.1835 31.062ZM25.5992 17.0023V17.9781C25.5992 18.1215 25.6563 18.2591 25.7579 18.3605C25.8596 18.462 25.9974 18.519 26.1412 18.519H27.958C28.2973 18.519 28.6127 18.6942 28.7927 18.983L29.2642 19.7424C29.3567 19.8908 29.4077 20.0611 29.4119 20.2358C29.4162 20.4105 29.3735 20.5831 29.2883 20.7357C29.2031 20.8884 29.0786 21.0155 28.9276 21.1039C28.7766 21.1923 28.6046 21.2388 28.4295 21.2385H28.0447C27.9009 21.2385 27.7631 21.2955 27.6614 21.3969C27.5598 21.4984 27.5027 21.6359 27.5027 21.7794V29.3809C27.5027 29.5399 27.4394 29.6923 27.3268 29.8047C27.2142 29.9171 27.0614 29.9802 26.9022 29.9802H26.3027V29.3809C26.3028 29.0105 26.2299 28.6436 26.0879 28.3014C25.9459 27.9591 25.7378 27.6481 25.4754 27.3861C25.2129 27.1241 24.9014 26.9163 24.5584 26.7745C24.2155 26.6327 23.8479 26.5597 23.4767 26.5597H22.525C22.3812 26.5597 22.2434 26.6167 22.1417 26.7181C22.0401 26.8195 21.983 26.9571 21.983 27.1006C21.983 27.244 22.0401 27.3816 22.1417 27.483C22.2434 27.5845 22.3812 27.6414 22.525 27.6414H23.4767C24.4382 27.6414 25.2187 28.4203 25.2187 29.3809V29.9802H19.8139C19.8106 29.7714 19.8117 29.5075 19.8215 29.2024C19.8475 28.4214 19.9353 27.3905 20.1738 26.3682C20.4144 25.3384 20.7992 24.3615 21.3922 23.6519C21.9678 22.9618 22.7472 22.5107 23.8572 22.5107C24.0009 22.5107 24.1388 22.4537 24.2405 22.3522C24.3421 22.2508 24.3992 22.1132 24.3992 21.9698V18.2821C24.3992 17.6027 24.9293 17.0456 25.5992 17.0023Z" fill="white"/>
<path d="M56.9594 17.1063V26.9343H54.5654V21.0403L52.3674 26.9343H50.4354L48.2234 21.0263V26.9343H45.8294V17.1063H48.6574L51.4154 23.9103L54.1454 17.1063H56.9594ZM59.885 18.3103C59.465 18.3103 59.1197 18.1889 58.849 17.9463C58.5877 17.6943 58.457 17.3863 58.457 17.0223C58.457 16.6489 58.5877 16.3409 58.849 16.0983C59.1197 15.8463 59.465 15.7203 59.885 15.7203C60.2957 15.7203 60.6317 15.8463 60.893 16.0983C61.1637 16.3409 61.299 16.6489 61.299 17.0223C61.299 17.3863 61.1637 17.6943 60.893 17.9463C60.6317 18.1889 60.2957 18.3103 59.885 18.3103ZM61.075 19.1223V26.9343H58.681V19.1223H61.075ZM62.3339 23.0283C62.3339 22.2163 62.4972 21.5069 62.8239 20.9003C63.1599 20.2936 63.6219 19.8269 64.2099 19.5003C64.8072 19.1736 65.4886 19.0103 66.2539 19.0103C67.2339 19.0103 68.0506 19.2669 68.7039 19.7803C69.3666 20.2936 69.8006 21.0169 70.0059 21.9503H67.4579C67.2432 21.3529 66.8279 21.0543 66.2119 21.0543C65.7732 21.0543 65.4232 21.2269 65.1619 21.5723C64.9006 21.9083 64.7699 22.3936 64.7699 23.0283C64.7699 23.6629 64.9006 24.1529 65.1619 24.4983C65.4232 24.8343 65.7732 25.0023 66.2119 25.0023C66.8279 25.0023 67.2432 24.7036 67.4579 24.1063H70.0059C69.8006 25.0209 69.3666 25.7396 68.7039 26.2623C68.0412 26.7849 67.2246 27.0463 66.2539 27.0463C65.4886 27.0463 64.8072 26.8829 64.2099 26.5563C63.6219 26.2296 63.1599 25.7629 62.8239 25.1563C62.4972 24.5496 62.3339 23.8403 62.3339 23.0283ZM76.0885 19.0383C76.9845 19.0383 77.7031 19.3369 78.2445 19.9343C78.7858 20.5223 79.0565 21.3343 79.0565 22.3703V26.9343H76.6765V22.6923C76.6765 22.1696 76.5411 21.7636 76.2705 21.4743C75.9998 21.1849 75.6358 21.0403 75.1785 21.0403C74.7211 21.0403 74.3571 21.1849 74.0865 21.4743C73.8158 21.7636 73.6805 22.1696 73.6805 22.6923V26.9343H71.2865V16.5743H73.6805V20.1723C73.9231 19.8269 74.2545 19.5516 74.6745 19.3463C75.0945 19.1409 75.5658 19.0383 76.0885 19.0383ZM81.9241 18.3103C81.5041 18.3103 81.1587 18.1889 80.8881 17.9463C80.6267 17.6943 80.4961 17.3863 80.4961 17.0223C80.4961 16.6489 80.6267 16.3409 80.8881 16.0983C81.1587 15.8463 81.5041 15.7203 81.9241 15.7203C82.3347 15.7203 82.6707 15.8463 82.9321 16.0983C83.2027 16.3409 83.3381 16.6489 83.3381 17.0223C83.3381 17.3863 83.2027 17.6943 82.9321 17.9463C82.6707 18.1889 82.3347 18.3103 81.9241 18.3103ZM83.1141 19.1223V26.9343H80.7201V19.1223H83.1141ZM90.799 21.8943C91.3683 22.0156 91.8256 22.3003 92.171 22.7483C92.5163 23.1869 92.689 23.6909 92.689 24.2603C92.689 25.0816 92.3996 25.7349 91.821 26.2203C91.2516 26.6963 90.4536 26.9343 89.427 26.9343H84.849V17.1063H89.273C90.2716 17.1063 91.051 17.3349 91.611 17.7923C92.1803 18.2496 92.465 18.8703 92.465 19.6543C92.465 20.2329 92.311 20.7136 92.003 21.0963C91.7043 21.4789 91.303 21.7449 90.799 21.8943ZM87.243 21.0823H88.811C89.203 21.0823 89.5016 20.9983 89.707 20.8303C89.9216 20.6529 90.029 20.3963 90.029 20.0603C90.029 19.7243 89.9216 19.4676 89.707 19.2903C89.5016 19.1129 89.203 19.0243 88.811 19.0243H87.243V21.0823ZM89.007 25.0023C89.4083 25.0023 89.7163 24.9136 89.931 24.7363C90.155 24.5496 90.267 24.2836 90.267 23.9383C90.267 23.5929 90.1503 23.3223 89.917 23.1263C89.693 22.9303 89.3803 22.8323 88.979 22.8323H87.243V25.0023H89.007ZM97.6335 27.0463C96.8681 27.0463 96.1775 26.8829 95.5615 26.5563C94.9548 26.2296 94.4741 25.7629 94.1195 25.1563C93.7741 24.5496 93.6015 23.8403 93.6015 23.0283C93.6015 22.2256 93.7788 21.5209 94.1335 20.9143C94.4881 20.2983 94.9735 19.8269 95.5895 19.5003C96.2055 19.1736 96.8961 19.0103 97.6615 19.0103C98.4268 19.0103 99.1175 19.1736 99.7335 19.5003C100.349 19.8269 100.835 20.2983 101.189 20.9143C101.544 21.5209 101.721 22.2256 101.721 23.0283C101.721 23.8309 101.539 24.5403 101.175 25.1563C100.821 25.7629 100.331 26.2296 99.7055 26.5563C99.0895 26.8829 98.3988 27.0463 97.6335 27.0463ZM97.6335 24.9743C98.0908 24.9743 98.4781 24.8063 98.7955 24.4703C99.1221 24.1343 99.2855 23.6536 99.2855 23.0283C99.2855 22.4029 99.1268 21.9223 98.8095 21.5863C98.5015 21.2503 98.1188 21.0823 97.6615 21.0823C97.1948 21.0823 96.8075 21.2503 96.4995 21.5863C96.1915 21.9129 96.0375 22.3936 96.0375 23.0283C96.0375 23.6536 96.1868 24.1343 96.4855 24.4703C96.7935 24.8063 97.1761 24.9743 97.6335 24.9743ZM106.548 27.0463C105.782 27.0463 105.092 26.8829 104.476 26.5563C103.869 26.2296 103.388 25.7629 103.034 25.1563C102.688 24.5496 102.516 23.8403 102.516 23.0283C102.516 22.2256 102.693 21.5209 103.048 20.9143C103.402 20.2983 103.888 19.8269 104.504 19.5003C105.12 19.1736 105.81 19.0103 106.576 19.0103C107.341 19.0103 108.032 19.1736 108.648 19.5003C109.264 19.8269 109.749 20.2983 110.104 20.9143C110.458 21.5209 110.636 22.2256 110.636 23.0283C110.636 23.8309 110.454 24.5403 110.09 25.1563C109.735 25.7629 109.245 26.2296 108.62 26.5563C108.004 26.8829 107.313 27.0463 106.548 27.0463ZM106.548 24.9743C107.005 24.9743 107.392 24.8063 107.71 24.4703C108.036 24.1343 108.2 23.6536 108.2 23.0283C108.2 22.4029 108.041 21.9223 107.724 21.5863C107.416 21.2503 107.033 21.0823 106.576 21.0823C106.109 21.0823 105.722 21.2503 105.414 21.5863C105.106 21.9129 104.952 22.3936 104.952 23.0283C104.952 23.6536 105.101 24.1343 105.4 24.4703C105.708 24.8063 106.09 24.9743 106.548 24.9743ZM116.68 26.9343L114.3 23.6583V26.9343H111.906V16.5743H114.3V22.3003L116.666 19.1223H119.62L116.372 23.0423L119.648 26.9343H116.68ZM123.738 27.0463C123.057 27.0463 122.45 26.9296 121.918 26.6963C121.386 26.4629 120.966 26.1456 120.658 25.7443C120.35 25.3336 120.177 24.8763 120.14 24.3723H122.506C122.534 24.6429 122.66 24.8623 122.884 25.0303C123.108 25.1983 123.383 25.2823 123.71 25.2823C124.009 25.2823 124.237 25.2263 124.396 25.1143C124.564 24.9929 124.648 24.8389 124.648 24.6523C124.648 24.4283 124.531 24.2649 124.298 24.1623C124.065 24.0503 123.687 23.9289 123.164 23.7983C122.604 23.6676 122.137 23.5323 121.764 23.3923C121.391 23.2429 121.069 23.0143 120.798 22.7063C120.527 22.3889 120.392 21.9643 120.392 21.4323C120.392 20.9843 120.513 20.5783 120.756 20.2143C121.008 19.8409 121.372 19.5469 121.848 19.3323C122.333 19.1176 122.907 19.0103 123.57 19.0103C124.55 19.0103 125.32 19.2529 125.88 19.7383C126.449 20.2236 126.776 20.8676 126.86 21.6703H124.648C124.611 21.3996 124.489 21.1849 124.284 21.0263C124.088 20.8676 123.827 20.7883 123.5 20.7883C123.22 20.7883 123.005 20.8443 122.856 20.9563C122.707 21.0589 122.632 21.2036 122.632 21.3903C122.632 21.6143 122.749 21.7823 122.982 21.8943C123.225 22.0063 123.598 22.1183 124.102 22.2303C124.681 22.3796 125.152 22.5289 125.516 22.6783C125.88 22.8183 126.197 23.0516 126.468 23.3783C126.748 23.6956 126.893 24.1249 126.902 24.6663C126.902 25.1236 126.771 25.5343 126.51 25.8983C126.258 26.2529 125.889 26.5329 125.404 26.7383C124.928 26.9436 124.373 27.0463 123.738 27.0463Z" fill="white"/>
</svg>
